<svg width="28" height="22" viewBox="0 0 28 22" fill="none" xmlns="http://www.w3.org/2000/svg">
<path fill-rule="evenodd" clip-rule="evenodd" d="M3.33317 3.61638V6.85193C3.33317 7.58823 2.73584 8.18556 1.99984 8.18556C1.26384 8.18556 0.666504 7.58823 0.666504 6.85193V1.66675C0.666504 1.22704 0.883837 0.814301 1.2465 0.566449C1.6105 0.31756 2.07317 0.264671 2.4825 0.424375L26.4825 9.75771C26.9958 9.95682 27.3332 10.4505 27.3332 11.0001C27.3332 11.5497 26.9958 12.0433 26.4825 12.2425L2.4825 21.5758C2.07317 21.7355 1.6105 21.6826 1.2465 21.4337C0.883837 21.1859 0.666504 20.7731 0.666504 20.3334C0.666504 20.3334 0.666504 16.4248 0.666504 13.6663C0.666504 11.4574 2.45717 9.66645 4.6665 9.66645H11.3332C12.0692 9.66645 12.6665 10.2638 12.6665 11.0001C12.6665 11.7364 12.0692 12.3337 11.3332 12.3337C11.3332 12.3337 7.42517 12.3337 4.6665 12.3337C3.9305 12.3337 3.33317 12.93 3.33317 13.6663V18.3838L22.3212 11.0001L3.33317 3.61638Z" fill="white"/>
</svg>
